<svg xmlns="http://www.w3.org/2000/svg" xmlns:xlink="http://www.w3.org/1999/xlink" width="500" zoomAndPan="magnify" viewBox="0 0 375 374.999991" height="500" preserveAspectRatio="xMidYMid meet" version="1.0"><defs><clipPath id="be485eda3e"><path d="M 200 344 L 226 344 L 226 369.136719 L 200 369.136719 Z M 200 344 " clip-rule="nonzero"/></clipPath><clipPath id="0ebd9c5a78"><path d="M 149 344 L 175 344 L 175 369.136719 L 149 369.136719 Z M 149 344 " clip-rule="nonzero"/></clipPath><clipPath id="91161e26fb"><path d="M 0 6.136719 L 375 6.136719 L 375 194 L 0 194 Z M 0 6.136719 " clip-rule="nonzero"/></clipPath></defs><path fill="#b4d2d7" d="M 274.9375 341.390625 C 271.597656 341.390625 268.890625 338.679688 268.890625 335.335938 L 268.890625 296.460938 L 244.417969 271.953125 C 242.054688 269.589844 242.054688 265.753906 244.417969 263.390625 C 246.78125 261.023438 250.609375 261.023438 252.972656 263.390625 L 279.214844 289.667969 C 280.347656 290.804688 280.984375 292.347656 280.984375 293.953125 L 280.984375 335.332031 C 280.988281 338.679688 278.277344 341.390625 274.9375 341.390625 Z M 274.9375 341.390625 " fill-opacity="1" fill-rule="evenodd"/><path fill="#b4d2d7" d="M 212.648438 360.171875 C 209.308594 360.171875 206.601562 357.460938 206.601562 354.117188 L 206.601562 329.613281 L 191.988281 324.738281 C 189.515625 323.914062 187.851562 321.597656 187.851562 318.992188 L 187.851562 290.125 C 187.851562 286.78125 190.558594 284.070312 193.898438 284.070312 C 197.242188 284.070312 199.949219 286.78125 199.949219 290.125 L 199.949219 314.625 L 214.5625 319.503906 C 217.03125 320.328125 218.695312 322.640625 218.695312 325.25 L 218.695312 354.117188 C 218.695312 357.460938 215.988281 360.171875 212.648438 360.171875 Z M 212.648438 360.171875 " fill-opacity="1" fill-rule="evenodd"/><path fill="#b4d2d7" d="M 162.25 360.164062 C 158.910156 360.164062 156.203125 357.453125 156.203125 354.105469 L 156.203125 325.238281 C 156.203125 322.632812 157.871094 320.320312 160.339844 319.496094 L 174.949219 314.617188 L 174.949219 290.117188 C 174.949219 286.769531 177.660156 284.058594 181 284.058594 C 184.339844 284.058594 187.046875 286.769531 187.046875 290.117188 L 187.046875 318.984375 C 187.046875 321.589844 185.378906 323.902344 182.910156 324.726562 L 168.300781 329.605469 L 168.300781 354.109375 C 168.300781 357.453125 165.589844 360.164062 162.25 360.164062 Z M 162.25 360.164062 " fill-opacity="1" fill-rule="evenodd"/><path fill="#b4d2d7" d="M 99.960938 341.390625 C 96.621094 341.390625 93.914062 338.679688 93.914062 335.335938 L 93.914062 293.953125 C 93.914062 292.347656 94.550781 290.804688 95.683594 289.671875 L 121.929688 263.390625 C 124.289062 261.027344 128.117188 261.027344 130.480469 263.390625 C 132.84375 265.753906 132.84375 269.589844 130.480469 271.957031 L 106.007812 296.460938 L 106.007812 335.335938 C 106.007812 338.679688 103.300781 341.390625 99.960938 341.390625 Z M 99.960938 341.390625 " fill-opacity="1" fill-rule="evenodd"/><path fill="#0b799d" d="M 287.4375 337.757812 C 287.4375 330.863281 281.824219 325.242188 274.9375 325.242188 C 268.054688 325.242188 262.441406 330.863281 262.441406 337.757812 C 262.441406 344.648438 268.054688 350.273438 274.9375 350.273438 C 281.824219 350.273438 287.4375 344.648438 287.4375 337.757812 Z M 287.4375 337.757812 " fill-opacity="1" fill-rule="evenodd"/><g clip-path="url(#be485eda3e)"><path fill="#0b799d" d="M 225.144531 356.539062 C 225.144531 349.644531 219.53125 344.023438 212.648438 344.023438 C 205.765625 344.023438 200.148438 349.644531 200.148438 356.539062 C 200.148438 363.433594 205.765625 369.054688 212.648438 369.054688 C 219.53125 369.054688 225.144531 363.433594 225.144531 356.539062 Z M 225.144531 356.539062 " fill-opacity="1" fill-rule="evenodd"/></g><g clip-path="url(#0ebd9c5a78)"><path fill="#0b799d" d="M 174.75 356.53125 C 174.75 349.636719 169.136719 344.015625 162.25 344.015625 C 155.367188 344.015625 149.753906 349.636719 149.753906 356.53125 C 149.753906 363.421875 155.367188 369.046875 162.25 369.046875 C 169.136719 369.046875 174.75 363.421875 174.75 356.53125 Z M 174.75 356.53125 " fill-opacity="1" fill-rule="evenodd"/></g><path fill="#0b799d" d="M 112.460938 337.757812 C 112.460938 330.863281 106.84375 325.242188 99.960938 325.242188 C 93.078125 325.242188 87.464844 330.863281 87.464844 337.757812 C 87.464844 344.648438 93.078125 350.273438 99.960938 350.273438 C 106.84375 350.273438 112.460938 344.648438 112.460938 337.757812 Z M 112.460938 337.757812 " fill-opacity="1" fill-rule="evenodd"/><path fill="#e1ebf0" d="M 281.1875 183.734375 L 281.1875 218.859375 L 261.398438 218.859375 C 259.484375 230.269531 255.007812 240.808594 248.574219 249.851562 L 262.570312 263.867188 L 253.734375 272.71875 L 244.894531 281.566406 L 230.898438 267.554688 C 221.863281 273.996094 211.34375 278.476562 199.949219 280.394531 L 199.949219 300.210938 L 174.949219 300.210938 L 174.949219 280.394531 C 163.554688 278.476562 153.03125 273.996094 144 267.554688 L 130.003906 281.570312 L 121.164062 272.71875 L 112.328125 263.867188 L 126.324219 249.855469 C 119.890625 240.808594 115.414062 230.269531 113.5 218.859375 L 93.710938 218.859375 L 93.710938 183.734375 L 149.953125 183.734375 L 149.953125 206.34375 C 149.953125 227.078125 166.738281 243.890625 187.449219 243.890625 C 208.15625 243.890625 224.945312 227.082031 224.945312 206.34375 L 224.945312 183.734375 Z M 281.1875 183.734375 " fill-opacity="1" fill-rule="evenodd"/><g clip-path="url(#91161e26fb)"><path fill="#0b799d" d="M 363.945312 129.730469 C 370.726562 136.527344 374.925781 145.914062 374.925781 156.28125 C 374.925781 177.019531 358.140625 193.828125 337.429688 193.828125 L 37.46875 193.828125 C 27.113281 193.828125 17.738281 189.625 10.953125 182.832031 C 4.171875 176.035156 -0.0273438 166.648438 -0.0273438 156.28125 C -0.0273438 135.546875 16.757812 118.734375 37.46875 118.734375 L 44.066406 118.734375 C 43.839844 116.679688 43.71875 114.59375 43.71875 112.476562 C 43.71875 81.375 68.898438 56.15625 99.960938 56.15625 C 104.066406 56.15625 108.0625 56.601562 111.917969 57.4375 C 123.84375 27.363281 153.167969 6.09375 187.449219 6.09375 C 221.730469 6.09375 251.050781 27.363281 262.980469 57.4375 C 266.835938 56.601562 270.832031 56.15625 274.9375 56.15625 C 306 56.15625 331.183594 81.375 331.183594 112.476562 C 331.183594 114.59375 331.0625 116.679688 330.832031 118.734375 L 337.429688 118.734375 C 347.785156 118.734375 357.160156 122.9375 363.945312 129.730469 Z M 363.945312 129.730469 " fill-opacity="1" fill-rule="evenodd"/></g><path fill="#99fffa" d="M 234.226562 62.214844 C 232.273438 62.214844 230.363281 61.269531 229.195312 59.527344 C 219.84375 45.535156 204.238281 37.183594 187.449219 37.183594 C 170.664062 37.183594 155.058594 45.535156 145.707031 59.527344 C 143.847656 62.304688 140.089844 63.050781 137.316406 61.191406 C 134.539062 59.332031 133.796875 55.570312 135.65625 52.789062 C 147.253906 35.433594 166.617188 25.070312 187.449219 25.070312 C 208.28125 25.070312 227.644531 35.433594 239.246094 52.789062 C 241.105469 55.570312 240.359375 59.332031 237.585938 61.191406 C 236.550781 61.882812 235.382812 62.214844 234.226562 62.214844 Z M 234.226562 62.214844 " fill-opacity="1" fill-rule="evenodd"/><path fill="#e1ebf0" d="M 143.703125 100.164062 C 130.03125 100.164062 118.910156 111.300781 118.910156 124.992188 L 118.910156 168.796875 C 118.910156 172.144531 121.617188 174.855469 124.957031 174.855469 C 128.296875 174.855469 131.003906 172.144531 131.003906 168.796875 L 131.003906 149.824219 L 156.40625 149.824219 L 156.40625 168.796875 C 156.40625 172.144531 159.113281 174.855469 162.453125 174.855469 C 165.792969 174.855469 168.5 172.144531 168.5 168.796875 L 168.5 124.992188 C 168.5 118.363281 165.921875 112.128906 161.238281 107.433594 C 156.550781 102.746094 150.324219 100.164062 143.703125 100.164062 Z M 131.003906 137.710938 L 131.003906 124.992188 C 131.003906 117.980469 136.703125 112.277344 143.703125 112.277344 C 147.097656 112.277344 150.285156 113.597656 152.683594 116 C 155.082031 118.40625 156.40625 121.597656 156.40625 124.996094 L 156.40625 137.710938 Z M 131.003906 137.710938 " fill-opacity="1" fill-rule="evenodd"/><path fill="#e1ebf0" d="M 206.800781 100.164062 L 187.449219 100.164062 C 184.109375 100.164062 181.402344 102.875 181.402344 106.21875 L 181.402344 168.796875 C 181.402344 172.144531 184.109375 174.855469 187.449219 174.855469 C 190.789062 174.855469 193.496094 172.144531 193.496094 168.796875 L 193.496094 149.824219 L 206.800781 149.824219 C 220.140625 149.824219 230.992188 138.957031 230.992188 125.597656 L 230.992188 124.386719 C 230.992188 111.03125 220.140625 100.164062 206.800781 100.164062 Z M 218.898438 125.597656 C 218.898438 132.277344 213.472656 137.710938 206.800781 137.710938 L 193.496094 137.710938 L 193.496094 112.277344 L 206.800781 112.277344 C 213.472656 112.277344 218.898438 117.710938 218.898438 124.386719 Z M 218.898438 125.597656 " fill-opacity="1" fill-rule="evenodd"/><path fill="#e1ebf0" d="M 249.941406 100.164062 C 246.601562 100.164062 243.894531 102.875 243.894531 106.21875 L 243.894531 168.796875 C 243.894531 172.144531 246.601562 174.855469 249.941406 174.855469 C 253.28125 174.855469 255.988281 172.144531 255.988281 168.796875 L 255.988281 106.21875 C 255.988281 102.875 253.28125 100.164062 249.941406 100.164062 Z M 249.941406 100.164062 " fill-opacity="1" fill-rule="evenodd"/></svg>